<svg width="14" height="18" viewBox="0 0 14 18" xmlns="http://www.w3.org/2000/svg">
<path d="M12.5555 6.34445V16.7778H1.44444V1.22223H9.65555C9.76302 0.82984 9.92775 0.455444 10.1444 0.111115H1.44444C1.14975 0.111115 0.867139 0.228178 0.658765 0.436551C0.450391 0.644925 0.333328 0.927541 0.333328 1.22223V16.7778C0.333328 17.0725 0.450391 17.3551 0.658765 17.5635C0.867139 17.7718 1.14975 17.8889 1.44444 17.8889H12.5555C12.8502 17.8889 13.1328 17.7718 13.3412 17.5635C13.5496 17.3551 13.6667 17.0725 13.6667 16.7778V6.5C13.291 6.49855 12.9172 6.44622 12.5555 6.34445Z" />
</svg>
